<?xml version="1.0" encoding="utf-8"?>
<!-- Generator: Adobe Illustrator 26.0.1, SVG Export Plug-In . SVG Version: 6.00 Build 0)  -->
<svg version="1.1" id="Слой_1" xmlns="http://www.w3.org/2000/svg" xmlns:xlink="http://www.w3.org/1999/xlink" x="0px" y="0px"
	 viewBox="0 0 250 250" style="enable-background:new 0 0 250 250;" xml:space="preserve">
<style type="text/css">
	.st0{fill:#171717;}
	.st1{fill:#3B82F6;}
</style>
<g>
	<path class="st0" d="M197.86,249.57H52.24c-28.82,0-52.19-23.37-52.19-52.19V51.76c0-28.82,23.37-52.19,52.19-52.19h145.62
		c28.82,0,52.19,23.37,52.19,52.19v145.62C250.05,226.21,226.69,249.57,197.86,249.57z"/>
</g>
<g>
	<path class="st1" d="M62.14,82.56v11.23H46.78v65.57h16.04v11.18H32.15V82.56H62.14z"/>
	<path class="st1" d="M92.18,137.88L81.16,158H65.07l18.18-28.68l-18.03-28.84h17.19l10.55,19.59h0.31l10.5-19.59h16.56
		l-18.08,28.47L120.24,158h-16.67L92.5,137.88H92.18z"/>
	<path class="st1" d="M129.43,150.74c-4.28-5.33-6.43-12.52-6.43-21.58c0-8.99,2.14-16.13,6.43-21.42
		c4.28-5.29,10.01-7.94,17.19-7.94c4.11,0,7.73,0.96,10.87,2.87c3.03,1.85,5.28,4.39,6.74,7.63h0.31V79h15.26v79h-15.05v-9.82h-0.26
		c-1.43,3.2-3.71,5.75-6.84,7.63c-3.2,1.92-6.9,2.87-11.08,2.87C139.4,158.68,133.68,156.03,129.43,150.74z M142.18,116.72
		c-2.37,3.1-3.55,7.26-3.55,12.49c0,5.26,1.18,9.44,3.55,12.54c2.33,3.07,5.49,4.6,9.46,4.6c3.94,0,7.09-1.55,9.46-4.65
		c2.37-3.1,3.55-7.24,3.55-12.43s-1.18-9.35-3.55-12.49c-2.37-3.1-5.52-4.65-9.46-4.65C147.67,112.13,144.52,113.66,142.18,116.72z"
		/>
	<path class="st1" d="M217,170.54h-30.67v-11.18h16.04V93.79h-15.36V82.56H217V170.54z"/>
</g>
</svg>
